<?xml version="1.0" standalone="no"?>
<!DOCTYPE svg PUBLIC "-//W3C//DTD SVG 20010904//EN" "http://www.w3.org/TR/2001/REC-SVG-20010904/DTD/svg10.dtd">
<!-- Created using Karbon, part of Calligra: http://www.calligra.org/karbon -->
<svg xmlns="http://www.w3.org/2000/svg" xmlns:xlink="http://www.w3.org/1999/xlink" width="102.397pt" height="102.397pt">
<defs>
  <linearGradient id="gradient0" gradientTransform="translate(-6, -24)" gradientUnits="objectBoundingBox" x1="0.46428600000" y1="1.50000000000" x2="0.46662400000" y2="0.50556000000" spreadMethod="pad">
   <stop stop-color="#aaaaaa" offset="0.00000000000" stop-opacity="1.00000000000"/>
   <stop stop-color="#f0f0f0" offset="1.00000000000" stop-opacity="1.00000000000"/>
  </linearGradient>
  <linearGradient id="gradient1" gradientTransform="translate(-10, -28)" gradientUnits="objectBoundingBox" x1="0.55714300000" y1="1.70000000000" x2="0.55714300000" y2="0.70000000000" spreadMethod="pad">
   <stop stop-color="#b0b0b0" offset="0.00000000000" stop-opacity="1.00000000000"/>
   <stop stop-color="#eeeeee" offset="1.00000000000" stop-opacity="1.00000000000"/>
  </linearGradient>
  <linearGradient id="gradient2" gradientTransform="matrix(0.771429 0 0 0.9 -7.71429 -25.2)" gradientUnits="objectBoundingBox" x1="0.72222200000" y1="1.88889000000" x2="0.72222200000" y2="0.77777800000" spreadMethod="pad">
   <stop stop-color="#b0b0b0" offset="0.00000000000" stop-opacity="1.00000000000"/>
   <stop stop-color="#eeeeee" offset="1.00000000000" stop-opacity="1.00000000000"/>
  </linearGradient>
  <linearGradient id="gradient3" gradientTransform="matrix(0.6 0 0 0.9 -6 -25.2)" gradientUnits="objectBoundingBox" x1="0.92857100000" y1="1.88889000000" x2="0.92857100000" y2="0.77777800000" spreadMethod="pad">
   <stop stop-color="#ccd251" offset="0.00000000000" stop-opacity="1.00000000000"/>
   <stop stop-color="#fbff00" offset="1.00000000000" stop-opacity="1.00000000000"/>
  </linearGradient>
  <linearGradient id="gradient4" gradientTransform="matrix(0.4 0 0 0.9 -4 -25.2)" gradientUnits="objectBoundingBox" x1="1.39286000000" y1="1.88889000000" x2="1.39286000000" y2="0.77777800000" spreadMethod="pad">
   <stop stop-color="#f08e00" offset="0.00000000000" stop-opacity="1.00000000000"/>
   <stop stop-color="#ffd200" offset="1.00000000000" stop-opacity="1.00000000000"/>
  </linearGradient>
  <linearGradient id="gradient5" gradientTransform="matrix(0.2 0 0 0.9 -2 -25.2)" gradientUnits="objectBoundingBox" x1="2.78571000000" y1="1.88889000000" x2="2.78571000000" y2="0.77777800000" spreadMethod="pad">
   <stop stop-color="#cd0000" offset="0.00000000000" stop-opacity="1.00000000000"/>
   <stop stop-color="#e55300" offset="1.00000000000" stop-opacity="1.00000000000"/>
  </linearGradient>
  <linearGradient id="gradient6" gradientTransform="translate(-20, -38)" gradientUnits="objectBoundingBox" x1="0.74487631586" y1="2.95992685425" x2="0.75021076787" y2="1.97571122455" spreadMethod="pad">
   <stop stop-color="#275ea0" offset="0.00000000000" stop-opacity="1.00000000000"/>
   <stop stop-color="#6681a0" offset="1.00000000000" stop-opacity="1.00000000000"/>
  </linearGradient>
  <linearGradient id="gradient7" gradientTransform="matrix(0 -3 2.96525 0 -20.6641 57)" gradientUnits="objectBoundingBox" x1="0.45833300000" y1="0.45898400000" x2="0.79166700000" y2="0.45898400000" spreadMethod="pad">
   <stop stop-color="#c80000" offset="0.00000000000" stop-opacity="1.00000000000"/>
   <stop stop-color="#f3604d" offset="1.00000000000" stop-opacity="1.00000000000"/>
  </linearGradient>
 </defs>
<g id="defitem29">
  <text id="text4154" fill="#000000" font-family="Anivers" font-size="5.00000000000pt" x="0.00000000000pt" y="3.71875000000pt" transform="translate(32, 174.349)"><tspan x="0"  y="4.64844">0%</tspan></text>
  <text id="text4158" fill="#000000" font-family="Anivers" font-size="5.00000000000pt" x="0.00000000000pt" y="3.71875000000pt" transform="translate(56, 174.349)"><tspan x="0"  y="4.64844">10-20%</tspan></text>
  <text id="text4166" fill="#000000" font-family="Anivers" font-size="5.00000000000pt" x="0.00000000000pt" y="3.71875000000pt" transform="translate(91, 174.349)"><tspan x="0"  y="4.64844">40%</tspan></text>
  <text id="text4170" fill="#000000" font-family="Anivers" font-size="5.00000000000pt" x="0.00000000000pt" y="3.71875000000pt" transform="translate(127.5, 174.349)"><tspan x="0"  y="4.64844">60%</tspan></text>
  <text id="text4174" fill="#000000" font-family="Anivers" font-size="5.00000000000pt" x="0.00000000000pt" y="3.71875000000pt" transform="translate(160.5, 174.349)"><tspan x="0"  y="4.64844">80%</tspan></text>
  <text id="text4178" fill="#000000" font-family="Anivers" font-size="5.00000000000pt" x="0.00000000000pt" y="3.71875000000pt" transform="translate(190, 174.349)"><tspan x="0"  y="4.64844">100%</tspan></text>
 </g><g id="layer1">
  <g id="Battery" transform="translate(1.05114, 8.21281)" fill="none">
   <rect id="defitem9" transform="translate(17.8514, 18.8032)" fill="#000000" fill-rule="evenodd" opacity="0.85000000000" width="42.45668198975pt" height="23.98896950863pt"/>
   <rect id="rect3958" transform="translate(0.625, 0.625)" fill="#000000" fill-opacity="0.00000000000" width="74.11570000000pt" height="64.97310000000pt"/>
   <path id="path3797" transform="translate(11.3808, 12.5208)" fill="#000000" opacity="0.70000000000" d="M7.10301 0C3.20655 0 0 3.20655 0 7.10301L0 35.4167C0 39.3132 3.20655 42.5198 7.10301 42.5198L59.0115 42.5198C62.908 42.5198 66.1145 39.3132 66.1145 35.4167L66.1145 29.9359L66.8764 29.9359C69.0413 29.9359 70.8335 28.1437 70.8335 25.9788L70.8335 16.5409C70.8335 14.3761 69.0413 12.5839 66.8764 12.5839L66.1145 12.5839L66.1145 7.10301C66.1145 3.20655 62.908 0 59.0115 0ZM10.2489 9.48707L55.8655 9.48707C56.4084 9.48707 56.6275 9.70618 56.6275 10.2489L56.6275 32.2707C56.6275 32.8136 56.4084 33.0327 55.8655 33.0327L10.2489 33.0327C9.70618 33.0327 9.48707 32.8136 9.48707 32.2707L9.48707 10.2489C9.48707 9.70618 9.70618 9.48707 10.2489 9.48707Z"/>
   <path id="path3789" transform="translate(13.0728, 14.6887)" fill="#000000" opacity="0.15000000000" d="M5.53003 0C2.48517 0 0 2.48517 0 5.53003L0 33.8437C0 36.8886 2.48517 39.3738 5.53003 39.3738L57.4385 39.3738C60.4834 39.3738 62.9686 36.8886 62.9686 33.8437L62.9686 26.7899L65.3034 26.7899C66.6038 26.7899 67.6875 25.7062 67.6875 24.4058L67.6875 14.9679C67.6875 13.6676 66.6038 12.5839 65.3034 12.5839L62.9686 12.5839L62.9686 5.53003C62.9686 2.48517 60.4834 0 57.4385 0ZM8.67596 6.3411L54.2925 6.3411C55.6065 6.3411 56.6275 7.36203 56.6275 8.67596L56.6275 30.6978C56.6275 32.0117 55.6065 33.0327 54.2925 33.0327L8.67596 33.0327C7.36203 33.0327 6.3411 32.0117 6.3411 30.6978L6.3411 8.67596C6.3411 7.36203 7.36203 6.3411 8.67596 6.3411Z"/>
   <path id="path3783" transform="translate(13.8839, 15.4998)" fill="#000000" opacity="0.30000000000" d="M4.71896 0C2.10204 0 0 2.10204 0 4.71896L0 33.0327C0 35.6496 2.10204 37.7516 4.71896 37.7516L56.6275 37.7516C59.2444 37.7516 61.3464 35.6496 61.3464 33.0327L61.3464 25.1678L64.4924 25.1678C65.3638 25.1678 66.0654 24.4662 66.0654 23.5948L66.0654 14.1569C66.0654 13.2854 65.3638 12.5839 64.4924 12.5839L61.3464 12.5839L61.3464 4.71896C61.3464 2.10204 59.2444 0 56.6275 0ZM7.86493 4.71896L53.4815 4.71896C55.2244 4.71896 56.6275 6.12206 56.6275 7.86493L56.6275 29.8867C56.6275 31.6296 55.2244 33.0327 53.4815 33.0327L7.86493 33.0327C6.12206 33.0327 4.71896 31.6296 4.71896 29.8867L4.71896 7.86493C4.71896 6.12206 6.12206 4.71896 7.86493 4.71896Z"/>
   <path id="rect2975" transform="translate(13.8839, 14.7134)" fill="url(#gradient0)" d="M4.71896 0C2.10204 0 0 2.10204 0 4.71896L0 33.0327C0 35.6496 2.10204 37.7516 4.71896 37.7516L56.6275 37.7516C59.2444 37.7516 61.3464 35.6496 61.3464 33.0327L61.3464 25.1678L64.4924 25.1678C65.3638 25.1678 66.0654 24.4662 66.0654 23.5948L66.0654 14.1569C66.0654 13.2854 65.3638 12.5839 64.4924 12.5839L61.3464 12.5839L61.3464 4.71896C61.3464 2.10204 59.2444 0 56.6275 0ZM7.86493 4.71896L53.4815 4.71896C55.2244 4.71896 56.6275 6.12206 56.6275 7.86493L56.6275 29.8867C56.6275 31.6296 55.2244 33.0327 53.4815 33.0327L7.86493 33.0327C6.12206 33.0327 4.71896 31.6296 4.71896 29.8867L4.71896 7.86493C4.71896 6.12206 6.12206 4.71896 7.86493 4.71896Z"/>
   <path id="path3765" transform="translate(13.8839, 14.7134)" fill="#ffffff" opacity="0.75000000000" d="M4.71896 0C2.10204 0 0 2.10204 0 4.71896L0 5.50545C0 2.88853 2.10204 0.786493 4.71896 0.786493L56.6275 0.786493C59.2444 0.786493 61.3464 2.88853 61.3464 5.50545L61.3464 4.71896C61.3464 2.10204 59.2444 0 56.6275 0ZM61.3464 12.5839L61.3464 13.3704L64.4924 13.3704C65.3638 13.3704 66.0654 14.0719 66.0654 14.9434L66.0654 14.1569C66.0654 13.2854 65.3638 12.5839 64.4924 12.5839ZM4.71896 29.8867L4.71896 30.6732C4.71896 32.4161 6.12206 33.8192 7.86493 33.8192L53.4815 33.8192C55.2244 33.8192 56.6275 32.4161 56.6275 30.6732L56.6275 29.8867C56.6275 31.6296 55.2244 33.0327 53.4815 33.0327L7.86493 33.0327C6.12206 33.0327 4.71896 31.6296 4.71896 29.8867Z"/>
   <path id="path3774" transform="translate(13.8839, 18.6458)" fill="#000000" opacity="0.15000000000" d="M7.86493 0C6.12206 0 4.71896 1.4031 4.71896 3.14597L4.71896 3.93246C4.71896 2.1896 6.12206 0.786493 7.86493 0.786493L53.4815 0.786493C55.2244 0.786493 56.6275 2.1896 56.6275 3.93246L56.6275 3.14597C56.6275 1.4031 55.2244 0 53.4815 0ZM66.0654 18.8758C66.0654 19.7473 65.3638 20.4488 64.4924 20.4488L61.3464 20.4488L61.3464 21.2353L64.4924 21.2353C65.3638 21.2353 66.0654 20.5338 66.0654 19.6623ZM0 28.3137L0 29.1002C0 31.7171 2.10204 33.8192 4.71896 33.8192L56.6275 33.8192C59.2444 33.8192 61.3464 31.7171 61.3464 29.1002L61.3464 28.3137C61.3464 30.9306 59.2444 33.0327 56.6275 33.0327L4.71896 33.0327C2.10204 33.0327 0 30.9306 0 28.3137Z"/>
  </g>
  <g id="Fill100" transform="translate(1.05114, 8.21281)" fill="none">
   <rect id="rect39581" transform="translate(0.625, 0.625)" fill="#000000" fill-opacity="0.00000000000" width="74.11570000000pt" height="64.97310000000pt"/>
   <rect id="rect3799" transform="translate(18.0828, 18.5392)" fill="url(#gradient1)" width="42.51975870000pt" height="24.09452993000pt"/>
  </g>
  <g id="Fill80" transform="translate(1.05114, 8.21281)" fill="none">
   <rect id="rect39582" transform="translate(0.625, 0.625)" fill="#000000" fill-opacity="0.00000000000" width="74.11570000000pt" height="64.97310000000pt"/>
   <rect id="rect37991" transform="translate(18.0828, 18.362)" fill="url(#gradient2)" width="34.01580696000pt" height="24.37799498800pt"/>
  </g>
  <g id="Fill60" transform="translate(1.29173, 8.21281)" fill="none">
   <rect id="rect39583" transform="translate(0.625, 0.625)" fill="#000000" fill-opacity="0.00000000000" width="74.11570000000pt" height="64.97310000000pt"/>
   <rect id="rect37992" transform="translate(17.8422, 18.362)" fill="url(#gradient3)" width="25.51185522000pt" height="24.37799498800pt"/>
  </g>
  <g id="Fill40" transform="translate(1.13321, 8.25006)" fill="none">
   <rect id="rect39584" transform="translate(0.625, 0.625)" fill="#000000" fill-opacity="0.00000000000" width="73.98438013800pt" height="64.91349828200pt"/>
   <rect id="rect37993" transform="translate(18.0007, 18.3247)" fill="url(#gradient4)" width="17.00790348000pt" height="24.37799498800pt"/>
  </g>
  <g id="Fill20" transform="translate(1.05114, 8.21281)" fill="none">
   <rect id="rect39585" transform="translate(0.625, 0.625)" fill="#000000" fill-opacity="0.00000000000" width="74.11570000000pt" height="64.97310000000pt"/>
   <rect id="rect37994" transform="translate(18.0828, 18.362)" fill="url(#gradient5)" width="8.50395174000pt" height="24.37799498800pt"/>
  </g>
  <g id="AcAdapter" transform="translate(1.05114, 8.21281)" fill="none">
   <rect id="rect39586" transform="translate(0.625, 0.625)" fill="#000000" fill-opacity="0.00000000000" width="74.11570000000pt" height="64.97310000000pt"/>
   <path id="path3662" transform="translate(19.6772, 21.3746)" fill="#000000" opacity="0.71000000000" d="M28.0846 0.00735778C28.008 0.0219043 27.933 0.0457687 27.861 0.0785236L1.3437 11.1851C0.885079 11.3972 -0.0789488 12.2294 0.00516812 12.7747C0.0892855 13.3198 0.429521 14.0837 0.925405 14.1131L18.9118 14.1968L18.9816 23.9544C18.9767 24.3394 19.14 24.703 19.4195 24.9295C19.6989 25.1558 20.0598 25.2169 20.387 25.0931L49.1124 13.9458C49.6166 13.7663 50.0373 12.9377 49.9489 12.3563C49.8607 11.775 49.6415 10.7516 49.1124 10.7668L29.3691 10.7668L29.2663 1.18158C29.2655 0.844971 29.1363 0.524643 28.9108 0.30059C28.6853 0.0765362 28.3849 -0.0300837 28.0846 0.00735778Z"/>
   <path id="path2856" transform="translate(22.1644, 23.172)" fill="url(#gradient6)" d="M0 10.7465L25.2572 0L25.2572 10.7465L45.102 10.7465L18.0408 21.4929L18.0408 10.7465Z"/>
  </g>
  <g id="Unavailable" transform="translate(1.05114, 8.21281)" fill="none">
   <path id="path3761" transform="translate(30.2039, 20.5827)" fill="#000000" fill-rule="evenodd" opacity="0.70000000000" d="M7.30529 0.00045608C7.30597 0.000377907 7.2166 0.0296498 7.21728 0.0295381C7.21795 0.0294264 7.1286 0.0296823 7.12926 0.0295381C7.12993 0.0293938 7.04059 0.0587968 7.04125 0.05862C7.04219 0.0583763 6.92295 0.0880093 6.9239 0.087702C6.92483 0.08739 6.80563 0.146248 6.80653 0.145866C6.80746 0.145486 6.65895 0.204476 6.65985 0.20403C6.66074 0.203585 6.54164 0.262705 6.5425 0.262193C6.54334 0.261687 6.45366 0.350008 6.45448 0.349439C6.4553 0.348872 6.33635 0.408227 6.33712 0.407604C6.33789 0.406979 6.24839 0.495529 6.24911 0.49485C6.24965 0.49434 6.18738 0.555554 6.1611 0.582096C6.15236 0.590936 6.13158 0.611364 6.13175 0.611178L0.498755 6.25308C0.499649 6.25215 0.3806 6.3995 0.381402 6.39849C0.382202 6.39747 0.292681 6.51591 0.293385 6.51482C0.294085 6.5137 0.204778 6.66137 0.20537 6.66023C0.205963 6.65912 0.116876 6.83592 0.117355 6.83471C0.117836 6.83351 0.0583113 6.98137 0.0586774 6.98013C0.0590426 6.97892 0.0290949 7.15589 0.0293389 7.15462C0.0295839 7.15332 -0.000121667 7.3304 3.80842e-07 7.32911C0.000123368 7.32781 3.80842e-07 7.50489 3.80842e-07 7.5036C3.80842e-07 7.5023 0.000123368 7.67938 3.80842e-07 7.6781C-0.000122606 7.6768 0.029583 7.85386 0.0293389 7.85259C0.0290938 7.85128 0.0590436 8.02832 0.0586774 8.02705C0.0583123 8.02586 0.117833 8.17372 0.117355 8.17253C0.116872 8.17126 0.205962 8.3481 0.20537 8.34699C0.204776 8.34588 0.294089 8.49349 0.293385 8.49238C0.292685 8.49128 0.382199 8.60975 0.381402 8.60873C0.3806 8.6077 0.499649 8.75507 0.498755 8.75412L4.72351 13.0001L0.498755 17.2461C0.499649 17.2451 0.3806 17.3925 0.381402 17.3915C0.382202 17.3905 0.292681 17.5089 0.293385 17.5078C0.294085 17.5066 0.204778 17.6544 0.20537 17.6532C0.205963 17.6521 0.116876 17.8289 0.117355 17.8276C0.117836 17.8264 0.0583113 17.9743 0.0586774 17.9731C0.0590426 17.9719 0.0290949 18.1488 0.0293389 18.1476C0.0295839 18.1463 -0.000121667 18.3234 3.80842e-07 18.3221C0.000123368 18.3208 3.80842e-07 18.4979 3.80842e-07 18.4966C3.80842e-07 18.4953 0.000123368 18.6724 3.80842e-07 18.6712C-0.000122606 18.6698 0.029583 18.8468 0.0293389 18.8456C0.0290938 18.8443 0.0590436 19.0213 0.0586774 19.02C0.0583123 19.0188 0.117833 19.1666 0.117355 19.1654C0.116872 19.1643 0.205962 19.3411 0.20537 19.3399C0.204776 19.3388 0.294089 19.4865 0.293385 19.4854C0.292685 19.4843 0.382199 19.6028 0.381402 19.6017C0.3806 19.6007 0.499649 19.748 0.498755 19.7471L6.1611 25.4181C6.16016 25.4172 6.27947 25.5353 6.27844 25.5345C6.27742 25.5337 6.42623 25.6515 6.42514 25.6507C6.42401 25.65 6.57299 25.7386 6.57183 25.738C6.5707 25.7373 6.74909 25.8259 6.74786 25.8253C6.74664 25.8247 6.92516 25.8838 6.9239 25.8834C6.92258 25.8829 7.07189 25.9419 7.07059 25.9416C7.06928 25.9413 7.24795 25.9708 7.24661 25.9707C7.2453 25.9706 7.45333 25.9707 7.45199 25.9707C7.45068 25.9707 7.62935 25.9706 7.62801 25.9707C7.6267 25.9707 7.80537 25.9414 7.80405 25.9416C7.80273 25.9418 7.98134 25.9122 7.98009 25.9125C7.97876 25.9128 8.12801 25.8538 8.12676 25.8543C8.12559 25.8549 8.30403 25.7956 8.30277 25.7961C8.3016 25.7968 8.45062 25.7082 8.44952 25.709C8.44835 25.7097 8.59722 25.5918 8.5962 25.5926C8.59518 25.5934 8.74389 25.4753 8.74288 25.4763L13.0557 21.2303L17.1924 25.4181C17.1919 25.4176 17.2515 25.4768 17.251 25.4763C17.2505 25.4758 17.3397 25.5349 17.3392 25.5345C17.3386 25.534 17.3982 25.5929 17.3978 25.5926C17.3973 25.5921 17.4863 25.6511 17.4858 25.6507C17.4852 25.6503 17.545 25.7093 17.5445 25.709C17.5439 25.7086 17.633 25.7674 17.6325 25.767C17.6318 25.7667 17.7212 25.7965 17.7205 25.7961C17.7199 25.7958 17.8091 25.8255 17.8085 25.8253C17.8079 25.825 17.8678 25.8546 17.8672 25.8543C17.8666 25.8542 17.9558 25.8835 17.9552 25.8834C17.9544 25.8832 18.0439 25.9126 18.0433 25.9125C18.0425 25.9123 18.1612 25.9417 18.1606 25.9416C18.1599 25.9414 18.2493 25.9708 18.2485 25.9707C18.2479 25.9706 18.3373 25.9707 18.3366 25.9707C18.3358 25.9707 18.4253 25.9707 18.4247 25.9707C18.424 25.9707 18.5133 25.9707 18.5127 25.9707C18.5119 25.9707 18.6012 25.9707 18.6006 25.9707C18.6 25.9707 18.6894 25.9707 18.6887 25.9707C18.6879 25.9707 18.7773 25.9706 18.7767 25.9707C18.7759 25.9708 18.8653 25.9414 18.8648 25.9416C18.864 25.9417 18.9827 25.9123 18.982 25.9125C18.9814 25.9126 19.0708 25.8832 19.07 25.8834C19.0694 25.8835 19.1587 25.8542 19.158 25.8543C19.1574 25.8546 19.2173 25.825 19.2168 25.8253C19.2161 25.8255 19.3054 25.7958 19.3048 25.7961C19.3042 25.7965 19.3934 25.7667 19.3928 25.767C19.3922 25.7674 19.4813 25.7086 19.4807 25.709C19.4802 25.7093 19.54 25.6503 19.5394 25.6507C19.5389 25.6511 19.628 25.5921 19.6276 25.5926C19.627 25.5929 19.6866 25.534 19.6862 25.5345C19.6857 25.5349 19.7747 25.4758 19.7742 25.4763C19.7737 25.4768 19.8334 25.4176 19.8328 25.4181L25.6713 19.5725C25.6704 19.5735 25.7893 19.4263 25.7886 19.4273C25.7878 19.4282 25.9066 19.2807 25.906 19.2818C25.9052 19.2829 25.9946 19.1352 25.994 19.1364C25.9934 19.1376 26.0531 18.9607 26.0526 18.9619C26.0522 18.9631 26.1116 18.8152 26.1113 18.8164C26.1109 18.8178 26.1409 18.6406 26.1406 18.642C26.1404 18.6433 26.17 18.4661 26.1699 18.4674C26.1698 18.4687 26.1699 18.2917 26.1699 18.293C26.1699 18.2943 26.1697 18.0882 26.1699 18.0895C26.1701 18.0908 26.1403 17.9137 26.1406 17.915C26.141 17.9162 26.0815 17.7683 26.082 17.7695C26.0824 17.7708 26.0228 17.5937 26.0233 17.595C26.0238 17.5962 25.9346 17.4194 25.9353 17.4205C25.9359 17.4216 25.8465 17.274 25.8473 17.2751C25.8481 17.2762 25.729 17.1288 25.73 17.1297C25.7307 17.1308 25.6116 17.0126 25.6126 17.0134L21.4758 13.0001L25.6126 8.98679C25.6117 8.98774 25.7307 8.86943 25.73 8.87046C25.729 8.87148 25.8481 8.72395 25.8473 8.72506C25.8465 8.72617 25.9359 8.57847 25.9353 8.57966C25.9346 8.58077 26.0238 8.40392 26.0233 8.40511C26.0228 8.40638 26.0824 8.22938 26.082 8.23065C26.0815 8.23192 26.141 8.08399 26.1406 8.08526C26.1403 8.08653 26.1701 7.90945 26.1699 7.91075C26.1697 7.91206 26.1699 7.70585 26.1699 7.70717C26.1699 7.70848 26.1698 7.53136 26.1699 7.53269C26.17 7.53399 26.1404 7.3569 26.1406 7.35819C26.1409 7.3595 26.1109 7.18243 26.1113 7.1837C26.1116 7.185 26.0522 7.03706 26.0526 7.0383C26.0531 7.03951 25.9934 6.86262 25.994 6.8638C25.9946 6.86501 25.9052 6.71727 25.906 6.71839C25.9066 6.71951 25.7878 6.57194 25.7886 6.57298C25.7893 6.574 25.6704 6.42661 25.6713 6.42757L19.8328 0.582096C19.8334 0.582588 19.7737 0.523466 19.7742 0.523932C19.7747 0.5244 19.6857 0.465321 19.6862 0.465767C19.6866 0.46621 19.627 0.407185 19.6276 0.407604C19.628 0.408019 19.5389 0.34905 19.5394 0.349439C19.54 0.349828 19.4802 0.290913 19.4807 0.291276C19.4813 0.291634 19.3922 0.232786 19.3928 0.233111C19.3934 0.233441 19.3042 0.203732 19.3048 0.20403C19.3054 0.204328 19.2161 0.174678 19.2168 0.174947C19.2173 0.175215 19.1574 0.145633 19.158 0.145866C19.1587 0.146102 19.0694 0.116579 19.07 0.116784C19.0708 0.116987 18.9814 0.0875349 18.982 0.087702C18.9827 0.0878722 18.864 0.0584805 18.8648 0.05862C18.8653 0.0587569 18.7759 0.0294358 18.7767 0.0295381C18.7773 0.0296405 18.6879 0.0294692 18.6887 0.0295381C18.6894 0.0296069 18.6 0.0295037 18.6006 0.0295381C18.6012 0.0295724 18.5119 0.0295381 18.5127 0.0295381C18.5133 0.0295381 18.424 0.0295724 18.4247 0.0295381C18.4253 0.0295037 18.3358 0.0296069 18.3366 0.0295381C18.3373 0.0294692 18.2479 0.0296405 18.2485 0.0295381C18.2493 0.0294358 18.1599 0.0587596 18.1606 0.05862C18.1612 0.0584832 18.0425 0.0878698 18.0433 0.087702C18.0439 0.0875317 17.9544 0.116989 17.9552 0.116784C17.9558 0.116581 17.8666 0.146099 17.8672 0.145866C17.8678 0.14563 17.8079 0.175218 17.8085 0.174947C17.8091 0.174681 17.7199 0.204327 17.7205 0.20403C17.7212 0.203732 17.6318 0.233438 17.6325 0.233111C17.633 0.232782 17.5439 0.291638 17.5445 0.291276C17.545 0.290916 17.4852 0.349831 17.4858 0.349439C17.4863 0.349052 17.3973 0.408022 17.3978 0.407604C17.3982 0.407187 17.3386 0.466214 17.3392 0.465767C17.3397 0.465325 17.2505 0.524397 17.251 0.523932C17.2515 0.523463 17.1919 0.582589 17.1924 0.582096L13.0557 4.7699L8.77222 0.553013C8.77238 0.553173 8.7527 0.533284 8.74288 0.523932C8.7232 0.505226 8.68386 0.465461 8.68417 0.465767C8.68472 0.466225 8.625 0.407175 8.62555 0.407604C8.62601 0.408034 8.56631 0.34903 8.56685 0.349439C8.5674 0.349844 8.47825 0.319976 8.4788 0.320358C8.47942 0.320735 8.3902 0.26185 8.39083 0.262193C8.39137 0.262542 8.3315 0.203713 8.33213 0.20403C8.33275 0.204348 8.24353 0.17466 8.24415 0.174947C8.24478 0.175235 8.15548 0.145605 8.1561 0.145866C8.15673 0.146123 8.06744 0.116561 8.06813 0.116784C8.06875 0.11701 7.97946 0.0875064 7.98009 0.087702C7.98071 0.0878944 7.89141 0.0584618 7.89203 0.05862C7.89274 0.0587801 7.80337 0.0294078 7.80405 0.0295381C7.80473 0.0296647 7.71535 0.029445 7.71603 0.0295381C7.71671 0.0296311 7.62733 0.000400242 7.62801 0.00045608C7.6287 0.000515639 7.53932 0.000430023 7.54 0.00045608C7.54068 0.000482137 7.4513 0.000464455 7.45199 0.00045608C7.43243 -0.000152027 7.41286 -0.000152027 7.39331 0.00045608C7.39399 0.00041234 7.30462 0.000534252 7.30529 0.00045608Z"/>
   <path id="path7165" transform="translate(32.023, 22.4434)" fill="url(#gradient7)" fill-rule="evenodd" d="M0 16.664L5.65475 22.3349L11.2226 16.8385L16.7033 22.3349L22.532 16.4895L17.0513 11.1674L22.532 5.84547L16.7033 0L11.2226 5.49649L5.65475 0L6.67081e-15 5.67098L5.48076 11.1674Z"/>
   <rect id="rect39587" transform="translate(0.625, 0.625)" fill="#000000" fill-opacity="0.00000000000" width="72.98658313384pt" height="64.91349828200pt"/>
  </g>
 </g>
</svg>
